Coordinates
version=1
nRows=12
nColumns=38
inDegrees=yes

Units are S.I. units (second, meters, Newtons, ...)
Angles are in degrees.

endheader
time	pelvis_tilt	pelvis_list	pelvis_rotation	pelvis_tx	pelvis_ty	pelvis_tz	hip_flexion_r	hip_adduction_r	hip_rotation_r	knee_angle_r	ankle_angle_r	subtalar_angle_r	mtp_angle_r	hip_flexion_l	hip_adduction_l	hip_rotation_l	knee_angle_l	ankle_angle_l	subtalar_angle_l	mtp_angle_l	lumbar_extension	lumbar_bending	lumbar_rotation	arm_flex_r	arm_add_r	arm_rot_r	elbow_flex_r	pro_sup_r	wrist_flex_r	wrist_dev_r	arm_flex_l	arm_add_l	arm_rot_l	elbow_flex_l	pro_sup_l	wrist_flex_l	wrist_dev_l
      7.15000000	      3.02873132	     -2.30562441	      5.03466962	      0.03079990	      0.88325001	      2.60712814	      0.00019129	      5.96313948	    -12.94695845	    -10.74690667	      7.07168878	      0.00000000	      0.00000000	     23.34096886	     -3.11481954	      2.19945681	    -54.06672455	     -0.21392729	      0.00000000	      0.00000000	     -8.24349004	      1.63049796	      1.64274214	     12.22890535	     -9.73800754	      2.50120932	     10.40583672	     98.10127408	      0.00000000	      0.00000000	      4.59436929	    -11.73602254	      3.67659388	     32.44236143	     95.21326142	      0.00000000	      0.00000000
      7.16000000	      3.02441797	     -2.12727552	      4.72366068	      0.03007803	      0.88312873	      2.60791312	     -1.07418823	      5.91391121	    -12.87469792	    -10.10021350	      7.39502252	      0.00000000	      0.00000000	     23.79965586	     -3.03532883	      1.67162477	    -51.23734293	      0.09350954	      0.00000000	      0.00000000	     -8.31940346	      1.30597627	      2.02932706	     13.32803751	     -9.72449499	      2.71953067	     11.01119032	     97.37380200	      0.00000000	      0.00000000	      4.07204567	    -11.50754561	      3.59436705	     30.55822844	     95.51469856	      0.00000000	      0.00000000
      7.17000000	      3.02405957	     -1.98275368	      4.42959411	      0.02952549	      0.88284099	      2.60863147	     -2.16783418	      5.89481055	    -12.82736891	     -9.43169939	      7.69386371	      0.00000000	      0.00000000	     24.15760609	     -2.99553302	      1.18041652	    -48.23554467	      0.10748144	      0.00000000	      0.00000000	     -8.39195127	      1.02107734	      2.38308126	     14.38352114	     -9.70823006	      3.05572396	     11.67234777	     96.55929367	      0.00000000	      0.00000000	      3.56239842	    -11.27362964	      3.49154481	     28.61923836	     95.94502339	      0.00000000	      0.00000000
      7.18000000	      3.01556775	     -1.87688323	      4.15489178	      0.02901118	      0.88231532	      2.60925663	     -3.25675024	      5.90730829	    -12.81214095	     -8.75990137	      7.96968598	      0.00000000	      0.00000000	     24.43208696	     -2.99377052	      0.77059065	    -45.08010360	     -0.14737703	      0.00000000	      0.00000000	     -8.46057095	      0.77826853	      2.70249898	     15.40080802	     -9.69183871	      3.50009798	     12.39414634	     95.69874889	      0.00000000	      0.00000000	      3.06903999	    -11.04174180	      3.38397313	     26.64125380	     96.50610438	      0.00000000	      0.00000000
      7.19000000	      3.00135385	     -1.81036352	      3.90071508	      0.02840847	      0.88160905	      2.60978298	     -4.32326976	      5.94949458	    -12.83205802	     -8.10821537	      8.23090618	      0.00000000	      0.00000000	     24.63427398	     -3.01796156	      0.47679658	    -41.76754451	     -0.62936190	      0.00000000	      0.00000000	     -8.52963998	      0.57272092	      2.98965309	     16.38526396	     -9.68069290	      4.03451838	     13.18296181	     94.82761521	      0.00000000	      0.00000000	      2.57605223	    -10.82674368	      3.27020654	     24.64313994	     97.16097555	      0.00000000	      0.00000000
      7.20000000	      2.99182365	     -1.77960558	      3.66465703	      0.02778039	      0.88079555	      2.61025687	     -5.36617026	      6.01932841	    -12.88302768	     -7.49861125	      8.48717073	      0.00000000	      0.00000000	     24.74559852	     -3.04987519	      0.31787972	    -38.29247157	     -1.29069346	      0.00000000	      0.00000000	     -8.60380497	      0.39580230	      3.24951498	     17.33166132	     -9.67863064	      4.63661799	     14.04312758	     93.97457819	      0.00000000	      0.00000000	      2.05459407	    -10.63638039	      3.12853114	     22.65190912	     97.83459130	      0.00000000	      0.00000000
      7.21000000	      2.99842501	     -1.77935693	      3.44215865	      0.02733819	      0.87979448	      2.61068473	     -6.40576564	      6.11026906	    -12.95520583	     -6.94785795	      8.74566775	      0.00000000	      0.00000000	     24.72188404	     -3.07764179	      0.29939355	    -34.67074641	     -2.08470979	      0.00000000	      0.00000000	     -8.68366256	      0.24293638	      3.48939352	     18.22151810	     -9.68547812	      5.28458143	     14.97487609	     93.16277138	      0.00000000	      0.00000000	      1.48168274	    -10.46290572	      2.92043058	     20.70707609	     98.42874134	      0.00000000	      0.00000000
      7.22000000	      3.03782610	     -1.80120025	      3.22736453	      0.02714821	      0.87858674	      2.61103546	     -7.47119980	      6.20858749	    -13.03594296	     -6.46572751	      9.00974372	      0.00000000	      0.00000000	     24.53224728	     -3.10278102	      0.41601548	    -30.94973191	     -2.96338309	      0.00000000	      0.00000000	     -8.76599753	      0.11595493	      3.71790068	     19.03101906	     -9.70039677	      5.95969424	     15.97463114	     92.41085424	      0.00000000	      0.00000000	      0.85414374	    -10.28750093	      2.60273641	     18.85655253	     98.85109977	      0.00000000	      0.00000000
      7.23000000	      3.12251529	     -1.83362263	      3.01118475	      0.02716537	      0.87730285	      2.61128937	     -8.57527394	      6.29692159	    -13.11161211	     -6.05574160	      9.28009402	      0.00000000	      0.00000000	     24.18734141	     -3.13430574	      0.64630200	    -27.20919289	     -3.87363563	      0.00000000	      0.00000000	     -8.84568426	      0.01527304	      3.94401117	     19.74406609	     -9.72711623	      6.64623353	     17.03746993	     91.73276586	      0.00000000	      0.00000000	      0.18283981	    -10.09365384	      2.14703017	     17.14253796	     99.05031281	      0.00000000	      0.00000000
      7.24000000	      3.24335570	     -1.86730266	      2.78071310	      0.02749008	      0.87595136	      2.61138290	     -9.69792924	      6.35904059	    -13.16771890	     -5.72085034	      9.55764139	      0.00000000	      0.00000000	     23.74118317	     -3.17677381	      0.94352319	    -23.55036840	     -4.76011432	      0.00000000	      0.00000000	     -8.91607158	     -0.06699797	      4.17923494	     20.36224047	     -9.77322866	      7.33027114	     18.16060930	     91.13659066	      0.00000000	      0.00000000	     -0.52638255	     -9.88391589	      1.55671580	     15.58601868	     99.04119172	      0.00000000	      0.00000000
      7.25000000	      3.36841953	     -1.89818118	      2.52131874	      0.02804943	      0.87442454	      2.61131626	    -10.78994243	      6.38198889	    -13.18939310	     -5.47042183	      9.84560987	      0.00000000	      0.00000000	     23.27433968	     -3.22774718	      1.23409335	    -20.07683804	     -5.57189713	      0.00000000	      0.00000000	     -8.96655619	     -0.14196729	      4.43664354	     20.90357599	     -9.84333762	      7.99871176	     19.34423851	     90.62357102	      0.00000000	      0.00000000	     -1.27747459	     -9.68186123	      0.87173620	     14.18669786	     98.90524384	      0.00000000	      0.00000000
      7.26000000	      3.45954305	     -1.92496037	      2.22132471	      0.02855913	      0.87272204	      2.61121043	    -11.79282711	      6.35906404	    -13.16472521	     -5.32185060	     10.14841145	      0.00000000	      0.00000000	     22.86422127	     -3.28768808	      1.43045231	    -16.88204900	     -6.26718925	      0.00000000	      0.00000000	     -8.98027266	     -0.21404252	      4.72242644	     21.38864921	     -9.93534622	      8.63887705	     20.58718267	     90.18836889	      0.00000000	      0.00000000	     -2.07044980	     -9.50801478	      0.15868852	     12.93866808	     98.76425667	      0.00000000	      0.00000000
